<?xml version="1.0" encoding="utf-8"?>
<!-- Generator: Adobe Illustrator 16.0.4, SVG Export Plug-In . SVG Version: 6.00 Build 0)  -->
<!DOCTYPE svg PUBLIC "-//W3C//DTD SVG 1.1//EN" "http://www.w3.org/Graphics/SVG/1.1/DTD/svg11.dtd">
<svg version="1.1" id="Layer_1" xmlns="http://www.w3.org/2000/svg" xmlns:xlink="http://www.w3.org/1999/xlink" x="0px" y="0px"
	 width="90.697px" height="90.697px" viewBox="0 0 90.697 90.697" enable-background="new 0 0 90.697 90.697" xml:space="preserve">
<path d="M63.531,43.069L63.531,43.069c-0.166,0-0.326,0-0.484-0.003h-0.449h-7.162V32.744h6.457c0.232,0,0.488-0.006,0.756-0.013
	c1.602-0.022,3.67-0.067,5.023,0.693c1.498,0.89,2.379,2.488,2.379,4.302c0,1.709-0.771,3.34-2.01,4.254
	C66.701,42.985,65.009,43.069,63.531,43.069z M56.945,41.557l6.111,0.007c0.154,0,0.312,0,0.475,0l0,0
	c1.283,0,2.639-0.067,3.609-0.796c0.855-0.626,1.408-1.82,1.408-3.041c0-1.271-0.613-2.392-1.631-2.995
	c-0.785-0.439-2.189-0.497-3.316-0.497c-0.318,0-0.633,0.003-0.926,0.006c-0.279,0.007-0.541,0.007-0.781,0.007h-4.949V41.557
	L56.945,41.557z M65.841,59.943L65.841,59.943c-0.184,0-0.359,0-0.533,0c-0.164-0.007-0.328-0.007-0.486-0.007h-9.387V48.732h9.803
	c1.609,0,3.607,0,5.129,0.86c1.602,0.908,2.674,2.726,2.674,4.533c0,1.978-0.939,3.82-2.457,4.81
	C69.218,59.863,67.417,59.943,65.841,59.943z M56.945,58.425h7.877c0.16,0,0.328,0,0.498,0c0.166,0.003,0.342,0.003,0.521,0.003l0,0
	c1.352,0,2.885-0.051,3.908-0.748c1.109-0.726,1.787-2.084,1.787-3.554c0-1.259-0.787-2.585-1.912-3.224
	c-1.18-0.664-2.959-0.664-4.387-0.664h-8.297v8.187H56.945z M32.565,67.824c-3.342,0-6.933-1.213-9.598-3.252
	c-2.355-1.801-5.166-5.111-5.166-10.678v-3.486l9.979-0.006v1.704c0,3.065,1.223,6.344,4.671,6.344c3.895,0,4.195-2.581,4.195-6.219
	V25.579h10.872v27.066C47.515,62.435,42.207,67.824,32.565,67.824z M19.309,51.917v1.978c0,9.06,8.135,12.431,13.256,12.431
	c11.108,0,13.44-7.441,13.44-13.68V27.091h-7.85v25.141c0,2.887,0,7.728-5.706,7.728c-3.751,0-6.183-3.078-6.183-7.853V51.91
	L19.309,51.917z M45.349,1.75c24.041,0,43.598,19.558,43.598,43.599c0,24.04-19.558,43.599-43.598,43.599S1.75,69.389,1.75,45.349
	C1.75,21.308,21.308,1.75,45.349,1.75 M45.349,0C20.303,0,0,20.303,0,45.349c0,25.045,20.303,45.349,45.349,45.349
	c25.046,0,45.348-20.304,45.348-45.349C90.697,20.303,70.395,0,45.349,0L45.349,0z"/>
</svg>
