<?xml version="1.0" encoding="utf-8"?>
<!-- Generator: Adobe Illustrator 16.0.4, SVG Export Plug-In . SVG Version: 6.00 Build 0)  -->
<!DOCTYPE svg PUBLIC "-//W3C//DTD SVG 1.1//EN" "http://www.w3.org/Graphics/SVG/1.1/DTD/svg11.dtd">
<svg version="1.1" id="Layer_1" xmlns="http://www.w3.org/2000/svg" xmlns:xlink="http://www.w3.org/1999/xlink" x="0px" y="0px"
	 width="78.802px" height="78.803px" viewBox="0 0 78.802 78.803" enable-background="new 0 0 78.802 78.803" xml:space="preserve">
<g>
	<rect width="78.802" height="78.803"/>
	<g>
		<g>
			<path fill="#FFFFFF" d="M57.583,37.122L57.583,37.122c-0.166,0-0.326,0-0.484-0.003H56.65h-7.162V26.797h6.457
				c0.232,0,0.488-0.006,0.756-0.013c1.602-0.022,3.67-0.067,5.023,0.693c1.498,0.89,2.379,2.488,2.379,4.302
				c0,1.709-0.771,3.34-2.01,4.254C60.753,37.038,59.062,37.122,57.583,37.122z M50.998,35.609l6.111,0.007c0.154,0,0.312,0,0.475,0
				l0,0c1.283,0,2.639-0.067,3.609-0.796c0.855-0.626,1.408-1.82,1.408-3.041c0-1.271-0.613-2.392-1.631-2.995
				c-0.785-0.439-2.189-0.497-3.316-0.497c-0.318,0-0.633,0.003-0.926,0.006C56.449,28.3,56.187,28.3,55.947,28.3h-4.949V35.609
				L50.998,35.609z"/>
		</g>
		<g>
			<path fill="#FFFFFF" d="M59.894,53.996L59.894,53.996c-0.184,0-0.359,0-0.533,0c-0.164-0.007-0.328-0.007-0.486-0.007h-9.387
				V42.785h9.803c1.609,0,3.607,0,5.129,0.86c1.602,0.908,2.674,2.726,2.674,4.533c0,1.978-0.939,3.82-2.457,4.81
				C63.271,53.916,61.47,53.996,59.894,53.996z M50.998,52.478h7.877c0.16,0,0.328,0,0.498,0c0.166,0.003,0.342,0.003,0.521,0.003
				l0,0c1.352,0,2.885-0.051,3.908-0.748c1.109-0.726,1.787-2.084,1.787-3.554c0-1.259-0.787-2.585-1.912-3.224
				c-1.18-0.664-2.959-0.664-4.387-0.664h-8.297v8.187H50.998z"/>
		</g>
		<g>
			<path fill="#FFFFFF" d="M26.618,61.877c-3.342,0-6.933-1.213-9.598-3.252c-2.355-1.801-5.166-5.111-5.166-10.678v-3.486
				l9.979-0.006v1.704c0,3.065,1.223,6.344,4.671,6.344c3.895,0,4.195-2.581,4.195-6.219V19.632h10.872v27.066
				C41.568,56.487,36.26,61.877,26.618,61.877z M13.362,45.97v1.978c0,9.06,8.135,12.431,13.256,12.431
				c11.108,0,13.44-7.441,13.44-13.68V21.144h-7.85v25.141c0,2.887,0,7.728-5.706,7.728c-3.751,0-6.183-3.078-6.183-7.853v-0.196
				L13.362,45.97z"/>
		</g>
	</g>
</g>
</svg>
