<?xml version="1.0" encoding="utf-8"?>
<!-- Generator: Adobe Illustrator 16.0.4, SVG Export Plug-In . SVG Version: 6.00 Build 0)  -->
<!DOCTYPE svg PUBLIC "-//W3C//DTD SVG 1.1//EN" "http://www.w3.org/Graphics/SVG/1.1/DTD/svg11.dtd">
<svg version="1.1" id="Layer_1" xmlns="http://www.w3.org/2000/svg" xmlns:xlink="http://www.w3.org/1999/xlink" x="0px" y="0px"
	 width="78.802px" height="78.803px" viewBox="0 0 78.802 78.803" enable-background="new 0 0 78.802 78.803" xml:space="preserve">
<path fill="none" d="M0,0h78.802v78.803H0V0z M62.093,36.033c1.238-0.914,2.01-2.545,2.01-4.254c0-1.813-0.881-3.412-2.379-4.302
	c-1.354-0.761-3.422-0.716-5.023-0.693c-0.268,0.007-0.523,0.013-0.756,0.013h-6.457v10.322h7.162h0.449
	c0.158,0.003,0.318,0.003,0.484,0.003l0,0C59.062,37.122,60.753,37.038,62.093,36.033z M50.998,35.609V28.3h4.949
	c0.24,0,0.502,0,0.781-0.007c0.293-0.003,0.607-0.006,0.926-0.006c1.127,0,2.531,0.058,3.316,0.497
	c1.018,0.604,1.631,1.725,1.631,2.995c0,1.221-0.553,2.415-1.408,3.041c-0.971,0.729-2.326,0.796-3.609,0.796l0,0
	c-0.162,0-0.32,0-0.475,0L50.998,35.609L50.998,35.609z M64.636,52.988c1.518-0.989,2.457-2.832,2.457-4.81
	c0-1.808-1.072-3.625-2.674-4.533c-1.521-0.86-3.52-0.86-5.129-0.86h-9.803v11.204h9.387c0.158,0,0.322,0,0.486,0.007
	c0.174,0,0.35,0,0.533,0l0,0C61.47,53.996,63.271,53.916,64.636,52.988z M50.994,52.478v-8.187h8.297c1.428,0,3.207,0,4.387,0.664
	c1.125,0.639,1.912,1.965,1.912,3.224c0,1.47-0.678,2.828-1.787,3.554c-1.023,0.697-2.557,0.748-3.908,0.748l0,0
	c-0.18,0-0.355,0-0.521-0.003c-0.17,0-0.338,0-0.498,0h-7.877H50.994z M41.572,46.698V19.632H30.7v26.652
	c0,3.638-0.3,6.219-4.195,6.219c-3.448,0-4.671-3.278-4.671-6.344v-1.704l-9.979,0.006v3.486c0,5.566,2.811,8.877,5.166,10.678
	c2.665,2.039,6.255,3.252,9.598,3.252C36.26,61.877,41.568,56.487,41.572,46.698z M20.319,45.963v0.196
	c0,4.774,2.432,7.853,6.183,7.853c5.706,0,5.706-4.841,5.706-7.728V21.144h7.85v25.555c0,6.238-2.333,13.68-13.44,13.68
	c-5.121,0-13.256-3.371-13.256-12.431V45.97L20.319,45.963z"/>
</svg>
