<?xml version="1.0" encoding="utf-8"?>
<!-- Generator: Adobe Illustrator 16.0.4, SVG Export Plug-In . SVG Version: 6.00 Build 0)  -->
<!DOCTYPE svg PUBLIC "-//W3C//DTD SVG 1.1//EN" "http://www.w3.org/Graphics/SVG/1.1/DTD/svg11.dtd">
<svg version="1.1" id="Layer_1" xmlns="http://www.w3.org/2000/svg" xmlns:xlink="http://www.w3.org/1999/xlink" x="0px" y="0px"
	 width="200px" height="25.558px" viewBox="0 0 200 25.558" enable-background="new 0 0 200 25.558" xml:space="preserve">
<g>
	<g>
		<g>
			<path fill="#FFFFFF" d="M142.259,20.562h3.862c0.294,0.916,1.379,1.631,3.063,1.631c2.06,0,3.283-1.059,3.283-3.062v-1.155h-0.08
				c-0.802,0.973-2.646,1.716-4.386,1.716c-3.049,0-6.23-2.575-6.23-7.01c0-4.378,2.647-7.183,6.125-7.183
				c1.711,0,3.77,0.717,4.599,1.946h0.054V5.9h3.503v13.116c0,2.061-0.615,3.462-1.632,4.463c-1.149,1.145-3.149,1.66-5.182,1.66
				C145.495,25.14,142.634,23.423,142.259,20.562z M152.656,12.596c0-2.701-1.678-3.978-3.816-3.978
				c-1.846,0-3.511,1.545-3.511,4.006c0,2.49,1.665,3.949,3.537,3.949C151.043,16.573,152.656,15.382,152.656,12.596z"/>
		</g>
	</g>
	<g>
		<path fill="#FFFFFF" d="M28.625,18.234c-1.187,1.477-3.271,2.604-5.818,2.604c-2.026,0-3.878-0.752-5.152-2.025
			c-1.332-1.332-2.2-3.444-2.2-5.702c0-3.792,2.374-7.583,7.497-7.583c4.92,0,7.034,3.676,7.265,7.005
			C30.333,14.501,29.783,16.759,28.625,18.234z M22.808,8.943c-2.113,0-3.445,1.649-3.445,4.197c0,2.981,1.853,4.255,3.532,4.255
			c1.852,0,3.531-1.447,3.386-4.429C26.166,10.651,24.949,8.943,22.808,8.943z"/>
	</g>
	<g>
		<path fill="#FFFFFF" d="M41.591,10.246c-0.608-0.694-1.679-1.794-3.502-1.794c-1.621,0-2.229,0.867-2.229,1.418
			c0,1.041,1.535,1.244,3.358,1.505c1.823,0.289,5.326,0.897,5.326,4.399c0,2.778-2.403,5.094-6.773,5.094
			c-1.592,0-3.155-0.318-4.631-1.157c-1.128-0.638-1.562-1.216-1.939-1.766l2.808-2.345c0.231,0.348,0.55,0.811,1.187,1.244
			c0.84,0.608,1.91,0.869,2.866,0.869c1.621,0,2.634-0.752,2.634-1.418c0-0.725-0.839-0.955-1.1-1.043
			c-0.26-0.087-1.071-0.26-2.721-0.578c-1.823-0.405-4.775-1.043-4.775-4.226c0-2.925,2.663-4.921,6.078-4.921
			c1.331,0,2.807,0.289,4.11,1.042c0.897,0.491,1.332,0.983,1.766,1.476L41.591,10.246z"/>
	</g>
	<g>
		<path fill="#FFFFFF" d="M59.882,17.511c-0.376,0.492-0.811,1.129-1.708,1.795c-1.477,1.1-3.3,1.533-4.892,1.533
			c-4.429,0-7.641-3.241-7.641-7.785c0-4.545,3.068-7.525,7.236-7.525c1.534,0,3.589,0.348,5.326,2.431
			c1.649,2.026,1.823,4.343,1.881,5.935H49.607c0.029,0.404,0.087,1.013,0.405,1.592c0.521,1.042,1.737,1.939,3.473,1.939
			c1.911,0,2.808-1.1,3.3-1.709L59.882,17.511z M55.714,11.229c-0.058-0.752-0.289-1.359-0.81-1.881
			c-0.463-0.463-1.216-0.811-2.113-0.811c-0.723,0-1.418,0.203-1.996,0.666c-0.898,0.723-1.072,1.534-1.188,2.025H55.714z"/>
	</g>
	<g>
		<path fill="#FFFFFF" d="M65.496,25.558h-3.792V5.962h3.792v0.984c0.666-0.55,1.766-1.418,3.821-1.418
			c3.791,0,6.454,3.154,6.454,7.467c0,4.805-2.808,7.873-6.773,7.873c-1.823,0-2.808-0.723-3.502-1.244V25.558z M68.477,8.973
			c-3.01,0-3.01,3.241-3.01,3.994c0,0.868,0,4.342,2.981,4.342c1.997,0,3.444-1.679,3.386-4.197
			C71.806,10.767,70.561,8.973,68.477,8.973z"/>
	</g>
	<g>
		<path fill="#FFFFFF" d="M89.927,20.435h-3.763v-8.162c-0.028-0.753-0.028-1.621-0.492-2.346c-0.144-0.202-0.666-0.983-1.823-0.983
			c-0.405,0-0.868,0.116-1.273,0.319c-1.592,0.896-1.65,2.691-1.679,3.849v7.323h-3.763V0h3.763v7.265
			c0.781-0.868,2.142-1.736,3.995-1.736c0.318,0,1.071,0.029,1.968,0.348c2.924,1.1,3.01,3.705,3.068,5.354V20.435z"/>
	</g>
	<g>
		<path fill="#FFFFFF" d="M107.016,0c0.753,0,1.506,0,2.229,0.087c3.213,0.434,4.66,2.46,4.66,4.979c0,1.157-0.348,2.98-2.084,3.763
			c-0.29,0.115-0.607,0.202-0.955,0.289c0.376,0.087,0.724,0.174,1.07,0.318c2.229,0.811,3.069,3.011,3.069,4.834
			c0,0.724-0.146,1.505-0.405,2.286c-1.36,3.763-4.603,3.821-6.86,3.879h-9.291V0H107.016z M102.617,7.844h3.56
			c1.072,0,1.969-0.028,2.605-0.405c0.289-0.145,1.071-0.694,1.071-1.91c0-0.724-0.29-1.36-0.897-1.795
			c-0.637-0.434-1.477-0.463-2.199-0.492h-4.14V7.844z M102.617,11.144v5.789h3.907c1.447,0,2.229-0.059,2.866-0.348
			c1.476-0.637,1.505-1.997,1.505-2.46c0-0.493-0.087-1.014-0.318-1.448c-0.811-1.447-2.432-1.505-3.85-1.533H102.617z"/>
	</g>
	<g>
		<path fill="#FFFFFF" d="M130.691,17.511c-0.376,0.492-0.811,1.129-1.708,1.795c-1.477,1.1-3.299,1.533-4.892,1.533
			c-4.429,0-7.642-3.241-7.642-7.785c0-4.545,3.069-7.525,7.236-7.525c1.534,0,3.589,0.348,5.326,2.431
			c1.65,2.026,1.823,4.343,1.881,5.935h-10.478c0.028,0.404,0.087,1.013,0.405,1.592c0.521,1.042,1.737,1.939,3.473,1.939
			c1.911,0,2.809-1.1,3.301-1.709L130.691,17.511z M126.522,11.229c-0.057-0.752-0.289-1.359-0.81-1.881
			c-0.464-0.463-1.216-0.811-2.113-0.811c-0.724,0-1.418,0.203-1.996,0.666c-0.897,0.723-1.071,1.534-1.188,2.025H126.522z"/>
	</g>
	<g>
		<path fill="#FFFFFF" d="M130.691,17.511c-0.376,0.492-0.811,1.129-1.708,1.795c-1.477,1.1-3.299,1.533-4.892,1.533
			c-4.429,0-7.642-3.241-7.642-7.785c0-4.545,3.069-7.525,7.236-7.525c1.534,0,3.589,0.348,5.326,2.431
			c1.65,2.026,1.823,4.343,1.881,5.935h-10.478c0.028,0.404,0.087,1.013,0.405,1.592c0.521,1.042,1.737,1.939,3.473,1.939
			c1.911,0,2.809-1.1,3.301-1.709L130.691,17.511z M126.522,11.229c-0.057-0.752-0.289-1.359-0.81-1.881
			c-0.464-0.463-1.216-0.811-2.113-0.811c-0.724,0-1.418,0.203-1.996,0.666c-0.897,0.723-1.071,1.534-1.188,2.025H126.522z"/>
	</g>
	<g>
		<path fill="#FFFFFF" d="M136.246,20.435h-3.733V5.962h3.59v1.911c1.157-1.708,2.547-2.229,3.965-2.229
			c0.55,0,0.868,0.058,1.158,0.115v3.444c-0.377-0.029-0.464-0.029-0.695-0.029c-0.926,0-1.592,0.203-2.055,0.406
			c-2.171,0.896-2.199,2.836-2.229,4.167V20.435z"/>
	</g>
	<g>
		<path fill="#FFFFFF" d="M171.667,20.435h-3.733v-1.1c-0.405,0.404-1.592,1.533-3.907,1.533c-3.618,0-6.426-3.068-6.426-7.496
			c0-4.516,2.663-7.844,6.715-7.844c2.113,0,3.127,0.897,3.618,1.303V0h3.733V20.435z M167.875,11.52
			c-0.203-1.273-1.187-2.46-2.981-2.46c-2.402,0-3.444,2.026-3.444,4.168c0,2.749,1.736,4.109,3.416,4.109
			c0.463,0,0.896-0.086,1.33-0.289c1.709-0.811,1.737-2.315,1.737-4.139C167.933,12.272,167.933,11.925,167.875,11.52z"/>
	</g>
	<g>
		<path fill="#FFFFFF" d="M186.596,18.234c-1.186,1.477-3.27,2.604-5.817,2.604c-2.026,0-3.878-0.752-5.151-2.025
			c-1.332-1.332-2.199-3.444-2.199-5.702c0-3.792,2.373-7.583,7.495-7.583c4.921,0,7.034,3.676,7.266,7.005
			C188.305,14.501,187.755,16.759,186.596,18.234z M180.779,8.943c-2.112,0-3.444,1.649-3.444,4.197
			c0,2.981,1.853,4.255,3.531,4.255c1.853,0,3.531-1.447,3.387-4.429C184.137,10.651,182.92,8.943,180.779,8.943z"/>
	</g>
	<g>
		<path fill="#FFFFFF" d="M193.663,20.435h-3.764V0h3.764V20.435z"/>
	</g>
	<g>
		<path fill="#FFFFFF" d="M200,20.435h-3.764V0H200V20.435z"/>
	</g>
	<g>
		<path fill="#FFFFFF" d="M13.816,13.676c0,3.597-1.65,7.165-7.14,7.165C2.295,20.841,0,17.97,0,14.198V13.46h4.172v0.411
			c0,2.431,0.681,3.546,2.794,3.546c2.35,0,2.702-1.611,2.702-3.836V0h4.148V13.676z"/>
	</g>
</g>
</svg>
